# xmcd
#
# Track frame offsets:
#	150
#	13363
#	30388
#	46350
#	64700
#	84138
#	99950
#	113638
#	128738
#	140513
#	157938
#	176643
#	195613
#
# Disc length: 2839 seconds
#
# Revision: 0
# Processed by: cddbd v1.4PL0 Copyright (c) Steve Scherf et al.
# Submitted via: EasyCDDAExtractor 4.5.0.2
#
DISCID=9d0b150d
DTITLE=Brooks and Dunn - Tight Rope
DYEAR=1999
DGENRE=Country
TTITLE0=Goin' Under Gettin' Over You
TTITLE1=Missing You
TTITLE2=Temptation #9
TTITLE3=Hurt Train
TTITLE4=Can't Stop My Heart
TTITLE5=Too Far This Time
TTITLE6=You'll Always Be Loved By Me
TTITLE7=I Love You More
TTITLE8=Beer Thirty
TTITLE9=Don't Look Back Now
TTITLE10=All Out Of Love
TTITLE11=The Trouble With Angels
TTITLE12=Texas And Norma Jean
EXTD=
EXTT0=
EXTT1=
EXTT2=
EXTT3=
EXTT4=
EXTT5=
EXTT6=
EXTT7=
EXTT8=
EXTT9=
EXTT10=
EXTT11=
EXTT12=
PLAYORDER=
